{
    "asset": {
        "version": "2.0",
        "generator": "Open Asset Import Library (assimp v5.0.5eb040c7)"
    },
    "accessors": [
        {
            "bufferView": 0,
            "byteOffset": 0,
            "componentType": 5126,
            "count": 3360,
            "type": "VEC3",
            "max": [
                0.03891837224364281,
                0.027232468128204347,
                0.006000000052154064
            ],
            "min": [
                -0.038123954087495807,
                -0.027479184791445733,
                -0.006000000052154064
            ]
        },
        {
            "bufferView": 1,
            "byteOffset": 0,
            "componentType": 5126,
            "count": 3360,
            "type": "VEC3",
            "max": [
                0.9969072937965393,
                0.9969252347946167,
                1.0
            ],
            "min": [
                -0.9969263076782227,
                -0.9968870878219605,
                -1.0
            ]
        },
        {
            "bufferView": 2,
            "byteOffset": 0,
            "componentType": 5125,
            "count": 17280,
            "type": "SCALAR",
            "max": [
                3359
            ],
            "min": [
                0
            ]
        }
    ],
    "buffers": [
        {
            "byteLength": 149760,
            "uri": "result.bin"
        }
    ],
    "bufferViews": [
        {
            "buffer": 0,
            "byteOffset": 0,
            "byteLength": 40320,
            "target": 34962
        },
        {
            "buffer": 0,
            "byteOffset": 40320,
            "byteLength": 40320,
            "target": 34962
        },
        {
            "buffer": 0,
            "byteOffset": 80640,
            "byteLength": 69120,
            "target": 34963
        }
    ],
    "materials": [
        {
            "name": "Neon Plexi Green by LP",
            "pbrMetallicRoughness": {
                "baseColorFactor": [
                    0.0,
                    1.0,
                    0.0,
                    1.0
                ],
                "metallicFactor": 0.0,
                "roughnessFactor": 0.8868853449821472
            }
        }
    ],
    "meshes": [
        {
            "name": "Curve",
            "primitives": [
                {
                    "mode": 4,
                    "material": 0,
                    "indices": 2,
                    "attributes": {
                        "POSITION": 0,
                        "NORMAL": 1
                    }
                }
            ]
        }
    ],
    "nodes": [
        {
            "name": "RootNode",
            "children": [
                1,
                2,
                3
            ]
        },
        {
            "name": "Light",
            "matrix": [
                -29.086467742919923,
                -5.518903732299805,
                -95.51712036132813,
                0.0,
                56.639312744140628,
                79.46723937988281,
                -21.839115142822267,
                0.0,
                77.11009979248047,
                -60.45246887207031,
                -19.988338470458986,
                0.0,
                407.6245422363281,
                590.38623046875,
                -100.54539489746094,
                1.0
            ]
        },
        {
            "name": "Camera",
            "matrix": [
                0.000019470719053060749,
                0.0,
                -100.0,
                0.0,
                0.0,
                100.0,
                0.0,
                0.0,
                100.0,
                0.0,
                0.000019470719053060749,
                0.0,
                0.0,
                11.054563522338868,
                253.78973388671876,
                1.0
            ]
        },
        {
            "name": "Curve",
            "matrix": [
                1260.3846435546876,
                -182.47586059570313,
                -586.8821411132813,
                0.0,
                0.0,
                1339.016357421875,
                -416.33258056640627,
                0.0,
                614.595947265625,
                374.2130126953125,
                1203.55078125,
                0.0,
                -4.512739181518555,
                10.43444538116455,
                0.0,
                1.0
            ],
            "mesh": 0
        }
    ],
    "scenes": [
        {
            "nodes": [
                0
            ]
        }
    ],
    "scene": 0
}